<svg width="35" height="31" viewBox="0 0 35 31" fill="none" xmlns="http://www.w3.org/2000/svg">
<path opacity="0.4" d="M21.21 3.44444L23.5225 5.93164C24.0901 6.5421 24.886 6.88889 25.7196 6.88889H31.5V27.5556H3.5V6.88889H9.28043C10.114 6.88889 10.9099 6.54209 11.4775 5.93164L13.79 3.44444H21.21ZM22.75 0H12.25L10.5308 1.84903C9.58489 2.86645 8.25828 3.44444 6.86905 3.44444H3.5C1.575 3.44444 0 4.99444 0 6.88889V27.5556C0 29.45 1.575 31 3.5 31H31.5C33.425 31 35 29.45 35 27.5556V6.88889C35 4.99444 33.425 3.44444 31.5 3.44444H28.131C26.7417 3.44444 25.4151 2.86645 24.4692 1.84903L22.75 0ZM17.5 12.0556C20.3875 12.0556 22.75 14.3806 22.75 17.2222C22.75 20.0639 20.3875 22.3889 17.5 22.3889C14.6125 22.3889 12.25 20.0639 12.25 17.2222C12.25 14.3806 14.6125 12.0556 17.5 12.0556ZM17.5 8.61111C12.67 8.61111 8.75 12.4689 8.75 17.2222C8.75 21.9756 12.67 25.8333 17.5 25.8333C22.33 25.8333 26.25 21.9756 26.25 17.2222C26.25 12.4689 22.33 8.61111 17.5 8.61111Z" fill="black"/>
</svg>
