<svg width="194" height="43" viewBox="0 0 194 43" fill="none" xmlns="http://www.w3.org/2000/svg">
<path d="M33.1997 13.2823L31.783 14.2139C30.6181 12.4939 29.1068 11.1323 27.2493 10.1289C25.4075 9.10966 23.4083 8.60003 21.2516 8.60003C18.9376 8.60003 16.8045 9.18133 14.8525 10.3439C12.9005 11.4906 11.3499 13.0513 10.2008 15.0261C9.06736 17.001 8.50065 19.1589 8.50065 21.5C8.50065 23.8411 9.06736 25.9991 10.2008 27.9739C11.3499 29.9487 12.9005 31.5174 14.8525 32.68C16.8045 33.8267 18.9376 34.4 21.2516 34.4C23.4083 34.4 25.4154 33.8904 27.2729 32.8711C29.1305 31.8519 30.6417 30.4743 31.8066 28.7384L33.1997 29.7178C31.8774 31.6926 30.1616 33.2534 28.0521 34.4C25.9585 35.5467 23.6916 36.12 21.2516 36.12C18.6385 36.12 16.2221 35.4671 14.0025 34.1611C11.7828 32.8552 10.0276 31.0795 8.73678 28.8339C7.44594 26.5884 6.80052 24.1437 6.80052 21.5C6.80052 18.8563 7.44594 16.4117 8.73678 14.1661C10.0276 11.9206 11.7828 10.1448 14.0025 8.83892C16.2221 7.53299 18.6385 6.88003 21.2516 6.88003C23.6916 6.88003 25.9585 7.45336 28.0521 8.60003C30.1616 9.7467 31.8774 11.3074 33.1997 13.2823ZM36.0333 11.3711L34.6165 12.3028C33.1368 10.105 31.2163 8.3691 28.855 7.09503C26.5094 5.80503 23.975 5.16003 21.2516 5.16003C19.0635 5.16003 16.9698 5.59003 14.9706 6.45003C12.9714 7.31003 11.2476 8.47262 9.79936 9.93781C8.36684 11.3871 7.22555 13.123 6.37548 15.1456C5.52542 17.1682 5.10039 19.2863 5.10039 21.5C5.10039 23.7137 5.52542 25.8319 6.37548 27.8545C7.22555 29.8771 8.36684 31.621 9.79936 33.0861C11.2476 34.5354 12.9714 35.69 14.9706 36.55C16.9698 37.41 19.0635 37.84 21.2516 37.84C23.9907 37.84 26.533 37.195 28.8786 35.905C31.2241 34.615 33.1368 32.8711 34.6165 30.6734L35.9861 31.7006C34.3489 34.1213 32.2316 36.0404 29.6342 37.4578C27.0525 38.8593 24.2583 39.56 21.2516 39.56C18.0245 39.56 15.0414 38.7558 12.3023 37.1473C9.56323 35.5228 7.39084 33.325 5.78516 30.5539C4.19523 27.7828 3.40026 24.7648 3.40026 21.5C3.40026 18.2352 4.19523 15.2173 5.78516 12.4461C7.39084 9.67503 9.56323 7.48522 12.3023 5.8767C15.0414 4.25225 18.0245 3.44003 21.2516 3.44003C24.2741 3.44003 27.084 4.1567 29.6814 5.59003C32.2788 7.00744 34.3961 8.93447 36.0333 11.3711ZM38.8196 9.41225L37.4028 10.3439C35.6083 7.68429 33.2863 5.58207 30.437 4.03725C27.6035 2.49244 24.5417 1.72003 21.2516 1.72003C18.607 1.72003 16.0725 2.24559 13.6483 3.2967C11.2397 4.33188 9.16181 5.73336 7.41445 7.50114C5.6671 9.26892 4.27394 11.3791 3.23497 13.8317C2.21174 16.2684 1.70013 18.8245 1.70013 21.5C1.70013 24.1756 2.21174 26.7397 3.23497 29.1923C4.27394 31.6289 5.6671 33.7311 7.41445 35.4989C9.16181 37.2667 11.2397 38.6761 13.6483 39.7273C16.0725 40.7624 18.607 41.28 21.2516 41.28C24.5417 41.28 27.6114 40.4997 30.4606 38.9389C33.3099 37.3782 35.6319 35.268 37.4265 32.6084L38.796 33.6595C36.844 36.5261 34.3253 38.8036 31.2399 40.4917C28.1545 42.1639 24.825 43 21.2516 43C18.3708 43 15.616 42.4267 12.9871 41.28C10.3739 40.1493 8.11497 38.6284 6.21019 36.7173C4.32116 34.7902 2.80994 32.5048 1.67652 29.8611C0.558839 27.2015 0 24.4145 0 21.5C0 18.5856 0.558839 15.8065 1.67652 13.1628C2.80994 10.5032 4.32116 8.21781 6.21019 6.3067C8.11497 4.37966 10.3739 2.85077 12.9871 1.72003C15.616 0.573364 18.3708 3.05176e-05 21.2516 3.05176e-05C24.8408 3.05176e-05 28.1781 0.844104 31.2635 2.53225C34.3489 4.2204 36.8676 6.51374 38.8196 9.41225Z" fill="white"/>
<path d="M48.2884 24.8683C47.0983 26.0819 46.5033 27.5391 46.5033 29.24C46.5033 30.9409 47.0983 32.3981 48.2884 33.6116C49.4879 34.8252 50.933 35.432 52.6237 35.432C54.3144 35.432 55.7548 34.8252 56.9449 33.6116C58.1444 32.3981 58.7442 30.9409 58.7442 29.24C58.7442 27.5391 58.1444 26.0819 56.9449 24.8683C55.7548 23.6548 54.3144 23.048 52.6237 23.048C50.933 23.048 49.4879 23.6548 48.2884 24.8683ZM46.4324 32.8663C45.7996 31.7579 45.4832 30.5491 45.4832 29.24C45.4832 27.9309 45.7996 26.7221 46.4324 25.6136C47.0747 24.5052 47.9436 23.6309 49.0393 22.9906C50.1349 22.3409 51.3297 22.016 52.6237 22.016C53.9177 22.016 55.1125 22.3409 56.2082 22.9906C57.3038 23.6309 58.168 24.5052 58.8009 25.6136C59.4431 26.7221 59.7643 27.9309 59.7643 29.24C59.7643 30.5491 59.4431 31.7579 58.8009 32.8663C58.168 33.9747 57.3038 34.8539 56.2082 35.5036C55.1125 36.1439 53.9177 36.464 52.6237 36.464C51.3297 36.464 50.1349 36.1439 49.0393 35.5036C47.9436 34.8539 47.0747 33.9747 46.4324 32.8663ZM45.1006 26.0436C44.6756 27.0565 44.4631 28.122 44.4631 29.24C44.4631 30.358 44.6756 31.4282 45.1006 32.4506C45.5351 33.4635 46.116 34.3426 46.8433 35.088C47.58 35.8237 48.449 36.4114 49.4501 36.851C50.4608 37.281 51.5186 37.496 52.6237 37.496C53.7288 37.496 54.7819 37.281 55.7831 36.851C56.7938 36.4114 57.6627 35.8237 58.39 35.088C59.1267 34.3426 59.7076 33.4635 60.1326 32.4506C60.5671 31.4282 60.7843 30.358 60.7843 29.24C60.7843 28.122 60.5671 27.0565 60.1326 26.0436C59.7076 25.0212 59.1267 24.1421 58.39 23.4063C57.6627 22.661 56.7938 22.0733 55.7831 21.6433C54.7819 21.2038 53.7288 20.984 52.6237 20.984C51.5186 20.984 50.4608 21.2038 49.4501 21.6433C48.449 22.0733 47.58 22.661 46.8433 23.4063C46.116 24.1421 45.5351 25.0212 45.1006 26.0436ZM44.1656 32.852C43.6839 31.7053 43.443 30.5013 43.443 29.24C43.443 27.9786 43.6839 26.7746 44.1656 25.628C44.6567 24.4813 45.3084 23.4971 46.1207 22.6753C46.9425 21.844 47.92 21.1846 49.0535 20.6973C50.1869 20.2004 51.377 19.952 52.6237 19.952C53.8705 19.952 55.0606 20.2004 56.194 20.6973C57.3274 21.1846 58.3003 21.844 59.1125 22.6753C59.9343 23.4971 60.586 24.4813 61.0677 25.628C61.5588 26.7746 61.8044 27.9786 61.8044 29.24C61.8044 30.5013 61.5588 31.7053 61.0677 32.852C60.586 33.9986 59.9343 34.9876 59.1125 35.819C58.3003 36.6407 57.3274 37.3001 56.194 37.797C55.0606 38.2843 53.8705 38.528 52.6237 38.528C51.377 38.528 50.1869 38.2843 49.0535 37.797C47.92 37.3001 46.9425 36.6407 46.1207 35.819C45.3084 34.9876 44.6567 33.9986 44.1656 32.852ZM43.2305 25.241C42.6921 26.5119 42.4229 27.8449 42.4229 29.24C42.4229 30.6351 42.6921 31.9729 43.2305 33.2533C43.7689 34.5242 44.4914 35.6231 45.3982 36.55C46.3144 37.4673 47.4005 38.1983 48.6567 38.743C49.9224 39.2876 51.2447 39.56 52.6237 39.56C54.0027 39.56 55.3203 39.2876 56.5765 38.743C57.8422 38.1983 58.9284 37.4673 59.8351 36.55C60.7513 35.6231 61.4786 34.5242 62.0169 33.2533C62.5553 31.9729 62.8245 30.6351 62.8245 29.24C62.8245 27.8449 62.5553 26.5119 62.0169 25.241C61.4786 23.9605 60.7513 22.8616 59.8351 21.9443C58.9284 21.0174 57.8422 20.2816 56.5765 19.737C55.3203 19.1923 54.0027 18.92 52.6237 18.92C51.2447 18.92 49.9224 19.1923 48.6567 19.737C47.4005 20.2816 46.3144 21.0174 45.3982 21.9443C44.4914 22.8616 43.7689 23.9605 43.2305 25.241ZM42.2954 33.6546C41.7004 32.25 41.4029 30.7784 41.4029 29.24C41.4029 27.7015 41.7004 26.2348 42.2954 24.8396C42.8905 23.435 43.6886 22.2262 44.6898 21.2133C45.691 20.2004 46.8811 19.393 48.2601 18.791C49.6485 18.189 51.103 17.888 52.6237 17.888C54.1444 17.888 55.5942 18.189 56.9732 18.791C58.3617 19.393 59.5565 20.2004 60.5577 21.2133C61.5588 22.2262 62.357 23.435 62.952 24.8396C63.547 26.2348 63.8446 27.7015 63.8446 29.24C63.8446 30.7784 63.547 32.25 62.952 33.6546C62.357 35.0497 61.5588 36.2537 60.5577 37.2666C59.5565 38.2795 58.3617 39.087 56.9732 39.689C55.5942 40.291 54.1444 40.592 52.6237 40.592C51.103 40.592 49.6485 40.291 48.2601 39.689C46.8811 39.087 45.691 38.2795 44.6898 37.2666C43.6886 36.2537 42.8905 35.0497 42.2954 33.6546Z" fill="white"/>
<path d="M73.4728 15.4561H74.2802L74.7311 34.4H82.1743V35.5036L74.7311 35.432V36.464L82.1743 36.55V37.496H74.7311V38.528H82.1743V39.56H73.711L73.4728 15.4561ZM71.5876 15.4561H72.5356L72.6909 39.56H71.6708L71.5876 15.4561ZM69.6307 15.4561H70.6508V39.56H69.6307V15.4561Z" fill="white"/>
<path d="M92.3047 24.8683C91.1147 26.0819 90.5196 27.5391 90.5196 29.24C90.5196 30.9409 91.1147 32.3981 92.3047 33.6116C93.5043 34.8252 94.9494 35.432 96.6401 35.432C98.3308 35.432 99.7712 34.8252 100.961 33.6116C102.161 32.3981 102.761 30.9409 102.761 29.24C102.761 27.5391 102.161 26.0819 100.961 24.8683C99.7712 23.6548 98.3308 23.048 96.6401 23.048C94.9494 23.048 93.5043 23.6548 92.3047 24.8683ZM90.4488 32.8663C89.816 31.7579 89.4995 30.5491 89.4995 29.24C89.4995 27.9309 89.816 26.7221 90.4488 25.6136C91.091 24.5052 91.96 23.6309 93.0556 22.9906C94.1513 22.3409 95.3461 22.016 96.6401 22.016C97.9341 22.016 99.1289 22.3409 100.225 22.9906C101.32 23.6309 102.184 24.5052 102.817 25.6136C103.459 26.7221 103.781 27.9309 103.781 29.24C103.781 30.5491 103.459 31.7579 102.817 32.8663C102.184 33.9747 101.32 34.8539 100.225 35.5036C99.1289 36.1439 97.9341 36.464 96.6401 36.464C95.3461 36.464 94.1513 36.1439 93.0556 35.5036C91.96 34.8539 91.091 33.9747 90.4488 32.8663ZM89.117 26.0436C88.692 27.0565 88.4795 28.122 88.4795 29.24C88.4795 30.358 88.692 31.4282 89.117 32.4506C89.5515 33.4635 90.1324 34.3426 90.8596 35.088C91.5964 35.8237 92.4653 36.4114 93.4665 36.851C94.4771 37.281 95.535 37.496 96.6401 37.496C97.7452 37.496 98.7983 37.281 99.7995 36.851C100.81 36.4114 101.679 35.8237 102.406 35.088C103.143 34.3426 103.724 33.4635 104.149 32.4506C104.583 31.4282 104.801 30.358 104.801 29.24C104.801 28.122 104.583 27.0565 104.149 26.0436C103.724 25.0212 103.143 24.1421 102.406 23.4063C101.679 22.661 100.81 22.0733 99.7995 21.6433C98.7983 21.2038 97.7452 20.984 96.6401 20.984C95.535 20.984 94.4771 21.2038 93.4665 21.6433C92.4653 22.0733 91.5964 22.661 90.8596 23.4063C90.1324 24.1421 89.5515 25.0212 89.117 26.0436ZM88.1819 32.852C87.7002 31.7053 87.4594 30.5013 87.4594 29.24C87.4594 27.9786 87.7002 26.7746 88.1819 25.628C88.6731 24.4813 89.3248 23.4971 90.1371 22.6753C90.9588 21.844 91.9364 21.1846 93.0698 20.6973C94.2032 20.2004 95.3933 19.952 96.6401 19.952C97.8868 19.952 99.0769 20.2004 100.21 20.6973C101.344 21.1846 102.317 21.844 103.129 22.6753C103.951 23.4971 104.602 24.4813 105.084 25.628C105.575 26.7746 105.821 27.9786 105.821 29.24C105.821 30.5013 105.575 31.7053 105.084 32.852C104.602 33.9986 103.951 34.9876 103.129 35.819C102.317 36.6407 101.344 37.3001 100.21 37.797C99.0769 38.2843 97.8868 38.528 96.6401 38.528C95.3933 38.528 94.2032 38.2843 93.0698 37.797C91.9364 37.3001 90.9588 36.6407 90.1371 35.819C89.3248 34.9876 88.6731 33.9986 88.1819 32.852ZM87.2469 25.241C86.7085 26.5119 86.4393 27.8449 86.4393 29.24C86.4393 30.6351 86.7085 31.9729 87.2469 33.2533C87.7852 34.5242 88.5078 35.6231 89.4145 36.55C90.3307 37.4673 91.4169 38.1983 92.6731 38.743C93.9388 39.2876 95.2611 39.56 96.6401 39.56C98.0191 39.56 99.3367 39.2876 100.593 38.743C101.859 38.1983 102.945 37.4673 103.851 36.55C104.768 35.6231 105.495 34.5242 106.033 33.2533C106.572 31.9729 106.841 30.6351 106.841 29.24C106.841 27.8449 106.572 26.5119 106.033 25.241C105.495 23.9605 104.768 22.8616 103.851 21.9443C102.945 21.0174 101.859 20.2816 100.593 19.737C99.3367 19.1923 98.0191 18.92 96.6401 18.92C95.2611 18.92 93.9388 19.1923 92.6731 19.737C91.4169 20.2816 90.3307 21.0174 89.4145 21.9443C88.5078 22.8616 87.7852 23.9605 87.2469 25.241ZM86.3118 33.6546C85.7167 32.25 85.4192 30.7784 85.4192 29.24C85.4192 27.7015 85.7167 26.2348 86.3118 24.8396C86.9068 23.435 87.705 22.2262 88.7061 21.2133C89.7073 20.2004 90.8974 19.393 92.2764 18.791C93.6649 18.189 95.1194 17.888 96.6401 17.888C98.1607 17.888 99.6106 18.189 100.99 18.791C102.378 19.393 103.573 20.2004 104.574 21.2133C105.575 22.2262 106.373 23.435 106.968 24.8396C107.563 26.2348 107.861 27.7015 107.861 29.24C107.861 30.7784 107.563 32.25 106.968 33.6546C106.373 35.0497 105.575 36.2537 104.574 37.2666C103.573 38.2795 102.378 39.087 100.99 39.689C99.6106 40.291 98.1607 40.592 96.6401 40.592C95.1194 40.592 93.6649 40.291 92.2764 39.689C90.8974 39.087 89.7073 38.2795 88.7061 37.2666C87.705 36.2537 86.9068 35.0497 86.3118 33.6546Z" fill="white"/>
<path d="M119.978 29.6986H126.126C126.939 29.6986 127.628 29.4406 128.195 28.9246C128.762 28.4086 129.045 27.6824 129.045 26.746C129.045 26.058 128.747 25.4416 128.152 24.897C127.567 24.3523 126.892 24.08 126.126 24.08H118.684V39.56H117.698V22.9906L126.126 23.048C127.175 23.048 128.091 23.4206 128.875 24.166C129.668 24.9113 130.065 25.7713 130.065 26.746C130.065 27.9595 129.683 28.9294 128.918 29.6556C128.152 30.3723 127.222 30.7306 126.126 30.7306H119.978V29.6986ZM119.978 31.7626H126.126C127.487 31.7626 128.653 31.2944 129.626 30.358C130.599 29.4215 131.085 28.2175 131.085 26.746C131.085 25.4942 130.589 24.3953 129.598 23.4493C128.606 22.4938 127.449 22.016 126.126 22.016L116.437 21.9443V39.56H115.509V20.984H126.126C127.732 20.984 129.13 21.5621 130.32 22.7183C131.51 23.865 132.105 25.2075 132.105 26.746C132.105 28.466 131.515 29.9041 130.334 31.0603C129.163 32.2165 127.76 32.7946 126.126 32.7946H119.978V31.7626ZM119.978 33.8266H126.126C127.383 33.8266 128.544 33.5209 129.612 32.9093C130.679 32.2977 131.529 31.4473 132.162 30.358C132.804 29.2686 133.125 28.0646 133.125 26.746C133.125 25.5515 132.809 24.4335 132.176 23.392C131.543 22.3409 130.684 21.5048 129.598 20.8836C128.521 20.2625 127.364 19.952 126.126 19.952H114.737V39.56H113.751V18.791L126.126 18.92C127.194 18.92 128.219 19.135 129.201 19.565C130.193 19.9854 131.047 20.5492 131.765 21.2563C132.483 21.9539 133.059 22.7852 133.494 23.7503C133.928 24.7154 134.145 25.714 134.145 26.746C134.145 28.4182 133.768 29.8802 133.012 31.132C132.256 32.3742 131.241 33.3202 129.966 33.97L132.105 39.56H131.014L128.988 34.3856C128.733 34.4716 128.436 34.5576 128.096 34.6436L130.008 39.56H128.918L127.047 34.8156C126.755 34.8443 126.448 34.8586 126.126 34.8586L127.926 39.56H126.849L125.064 34.8586H124.143L125.857 39.56H124.781L123.052 34.8586H119.978V33.8266Z" fill="white"/>
<path d="M141.28 18.92H142.3V39.56H141.28V18.92ZM139.24 18.92H140.26V39.56H139.24V18.92ZM137.199 18.92H138.22V39.56H137.199V18.92Z" fill="white"/>
<path d="M159.915 29.7148L160.484 28.1496H169.346L169.928 29.7148H159.915ZM158.778 32.8452L159.346 31.28H170.469L171.09 32.8452H158.778ZM149.863 40.28H148.3L161.429 4.28003H162.992L176.101 40.28H174.558L162.211 6.38873L149.863 40.28ZM162.391 10.1061L163.213 12.1061L152.95 40.28H151.407L162.391 10.1061ZM163.994 14.2366L164.756 16.3887L156.077 40.28H154.514L163.994 14.2366ZM169.186 4.28003L182.315 40.28H180.771L167.643 4.28003H169.186ZM166.079 4.28003L179.208 40.28H177.645L164.536 4.28003H166.079Z" fill="white"/>
<path d="M191.857 4.28003H193.3V40.28H191.857V4.28003ZM188.97 4.28003H190.414V40.28H188.97V4.28003ZM186.084 4.28003H187.527V40.28H186.084V4.28003Z" fill="white"/>
</svg>
